<?xml version="1.0" encoding="iso-8859-1"?>
<!-- Generator: Adobe Illustrator 18.0.0, SVG Export Plug-In . SVG Version: 6.00 Build 0)  -->
<!DOCTYPE svg PUBLIC "-//W3C//DTD SVG 1.1//EN" "http://www.w3.org/Graphics/SVG/1.1/DTD/svg11.dtd">
<svg xmlns="http://www.w3.org/2000/svg" xmlns:xlink="http://www.w3.org/1999/xlink" version="1.1" id="Capa_1" x="0px" y="0px" viewBox="0 0 479.148 479.148" style="enable-background:new 0 0 479.148 479.148;" xml:space="preserve" width="512px" height="512px">
<g>
	<path d="M423.425,153.749h-103.93v-27.392c0-12.118-9.858-21.977-21.977-21.977h-88.11c-12.118,0-21.978,9.859-21.978,21.977   v27.392H83.506c-4.143,0-7.5,3.358-7.5,7.5v236.956c0,4.142,3.357,7.5,7.5,7.5h339.919c4.143,0,7.5-3.358,7.5-7.5V161.249   C430.925,157.107,427.568,153.749,423.425,153.749z M209.409,119.38h88.11c3.674,0,6.687,2.857,6.951,6.465H202.457   C202.721,122.237,205.734,119.38,209.409,119.38z M202.431,140.845h102.064v12.904H202.431V140.845z M415.925,168.749v180.208   c-21.471,3.257-38.484,20.274-41.741,41.749H132.75c-3.257-21.476-20.272-38.493-41.744-41.749V168.749H415.925z M91.006,364.214   c13.182,2.907,23.58,13.306,26.487,26.492H91.006V364.214z M389.441,390.705c2.907-13.185,13.303-23.583,26.484-26.491v26.491   H389.441z" fill="#643A43"/>
	<path d="M478.774,150.297c-0.62-1.89-1.966-3.457-3.741-4.354L365.811,90.697c-1.774-0.898-3.835-1.054-5.724-0.434   c-1.89,0.62-3.456,1.966-4.354,3.741l-20.021,39.581c-1.87,3.696-0.389,8.208,3.308,10.078c3.694,1.87,8.207,0.389,10.077-3.307   l16.636-32.889l95.836,48.475l-24.322,48.082c-1.87,3.696-0.39,8.208,3.307,10.078c1.086,0.549,2.241,0.809,3.38,0.809   c2.738,0,5.378-1.505,6.698-4.116l27.708-54.774C479.239,154.245,479.394,152.186,478.774,150.297z" fill="#643A43"/>
	<path d="M17.638,144.948l93.112-53.76l3.422,5.93l-83.066,47.959c-3.587,2.071-4.816,6.658-2.745,10.245l28.002,48.504   c1.389,2.406,3.91,3.751,6.502,3.751c1.272,0,2.562-0.324,3.743-1.006c3.587-2.071,4.816-6.658,2.745-10.245l-24.252-42.009   l93.006-53.697l24.236,41.983c2.07,3.587,6.657,4.816,10.245,2.746c3.587-2.071,4.816-6.658,2.745-10.245l-27.986-48.479   c-0.994-1.723-2.633-2.98-4.554-3.495c-1.919-0.513-3.967-0.245-5.691,0.75l-9.939,5.739l-7.169-12.424   c-0.994-1.723-2.633-2.98-4.554-3.496c-1.922-0.515-3.968-0.246-5.692,0.749L3.751,135.646c-3.545,2.046-4.794,6.557-2.808,10.135   l56.348,101.507c1.37,2.469,3.928,3.861,6.564,3.861c1.231,0,2.48-0.304,3.633-0.944c3.622-2.011,4.928-6.576,2.918-10.198   L17.638,144.948z" fill="#643A43"/>
</g>
<g>
</g>
<g>
</g>
<g>
</g>
<g>
</g>
<g>
</g>
<g>
</g>
<g>
</g>
<g>
</g>
<g>
</g>
<g>
</g>
<g>
</g>
<g>
</g>
<g>
</g>
<g>
</g>
<g>
</g>
</svg>
